<svg xmlns="http://www.w3.org/2000/svg" height="152" width="41" viewBox="-9.92187 -5.320825 85.98954 31.92495"><g fill="#00c81e" stroke-width="2.2837"><path d="M61.3377 17.5295l.0347-.139c.2318-.8226.9385-1.3672 1.7611-1.3672.9153 0 1.5293.4982 1.6915 1.3787l.0232.1275zm1.9-2.5605c-1.7842 0-3.1165 1.3555-3.1165 3.1514 0 1.7958 1.3555 3.1513 3.1513 3.1513.95 0 1.8538-.3707 2.4215-.9848l-.7879-.8342c-.278.2781-.8226.672-1.6452.672-1.008 0-1.7726-.6372-1.9232-1.5988l-.0232-.1275h4.8313v-.2664c-.0927-1.958-1.2049-3.163-2.908-3.163m-33.1473 2.5605l.0347-.139c.2318-.8226.9385-1.3672 1.7611-1.3672.9153 0 1.5293.4982 1.6915 1.3787l.0232.1275zm1.9-2.5605c-1.7842 0-3.1165 1.3555-3.1165 3.1514 0 1.7958 1.3555 3.1513 3.1513 3.1513.95 0 1.8538-.3707 2.4215-.9848l-.7879-.8342c-.278.2781-.8226.672-1.6452.672-1.008 0-1.7726-.6372-1.9232-1.5988l-.0232-.1275h4.8313v-.2664c-.0927-1.958-1.2049-3.163-2.908-3.163m20.8199-2.6763a.843.843 0 00-.8458.8457c0 .475.3823.8574.8458.8574a.8554.8554 0 00.8573-.8574c0-.4634-.3823-.8457-.8573-.8457m-16.846.1274h1.1702v8.7358h-1.1702zm16.2667 2.6416h1.1701v6.0942h-1.1701zm7.4034.4055v-.4055h-5.0283v1.0195h3.3483l-3.3483 4.6576v.417h5.0283v-1.0195h-3.36zm-9.8249 1.5062l.0232.0231v2.213l-.0232.0231c-.3707.5561-1.0427.9037-1.7726.9037-1.1239 0-1.9349-.8573-1.9349-2.0391s.811-2.0391 1.9349-2.0391c.7299.0116 1.4134.3591 1.7726.9153m-4.9124 1.1354c0 1.7958 1.344 3.1513 3.1282 3.1513.6256 0 1.1933-.1853 1.622-.5329l.1738-.139v.5677h1.1702v-6.0942h-1.1702v.5909l-.1738-.139c-.4403-.3592-1.008-.5446-1.622-.5446-1.7843 0-3.1282 1.344-3.1282 3.1398m-3.4526-3.1398c-.6836 0-1.2976.2433-1.6916.6604l-.1853.2085v-3.4178h-1.1702v8.7358h1.1702V17.263c.2548-.7647.8341-1.1818 1.6104-1.1818 1.008 0 1.5525.7879 1.5525 1.5178v3.5569h1.1702v-3.5917c0-1.5756-.9616-2.5952-2.4562-2.5952m-17.8655 5.0399h-1.483v-6.4534h1.483c1.9233 0 3.3136 1.3556 3.3136 3.2209 0 1.877-1.3903 3.2325-3.3136 3.2325m0-7.5888h-2.7343v8.7358h2.7343c2.6184 0 4.588-1.877 4.588-4.368 0-2.4909-1.9696-4.3678-4.588-4.3678M43.5765 1.6568h1.1702v8.7358h-1.1702zM23.0694 7.276l1.541-3.8466 1.5293 3.8466zm1.0543-5.6192l-3.5916 8.7358h1.3324l.7994-1.9928h3.8929l.7994 1.9928h1.344l-3.5917-8.7358zm8.6895 2.5489c-.6836 0-1.2977.2433-1.6916.6604l-.1853.2085V1.6568H29.766v8.7358h1.1702V6.5113l.0115-.0116c.255-.7647.8342-1.1818 1.6105-1.1818 1.008 0 1.5525.7879 1.5525 1.5178v3.5569h1.1702V6.8009c-.0232-1.5757-.9848-2.5952-2.4678-2.5952m6.604 5.1789c-1.1354 0-1.9464-.8574-1.9464-2.0391 0-1.1818.8226-2.0392 1.9464-2.0392 1.1123 0 1.9465.8806 1.9465 2.0392.0116 1.1701-.8342 2.039-1.9465 2.039m0-5.1788c-1.7958 0-3.163 1.3555-3.163 3.1514 0 1.7958 1.3556 3.1513 3.163 3.1513 1.7959 0 3.163-1.3555 3.163-3.1513 0-1.8074-1.3556-3.1514-3.163-3.1514m11.2384 2.0391v2.213l-.0232.023c-.3707.5562-1.0427.9038-1.7726.9038-1.1239 0-1.9349-.8574-1.9349-2.0391 0-1.1818.811-2.0392 1.9349-2.0392.7183 0 1.4019.3476 1.7726.9037zm-1.7958-2.0391c-1.7843 0-3.1282 1.3555-3.1282 3.1514 0 1.7958 1.344 3.1513 3.1282 3.1513.6256 0 1.1933-.1854 1.622-.533l.1738-.139v.5677h1.1701V1.6568h-1.1701v3.2325l-.1738-.139c-.4519-.3592-1.008-.5446-1.622-.5446M8.17 1.1354a.5686.5686 0 00.5676-.5677C8.7376.255 8.4828 0 8.1584 0a.5686.5686 0 00-.5678.5677c.0116.3128.2665.5677.5793.5677"/><path d="M8.17 1.1354a.5686.5686 0 00.5676-.5677C8.7376.255 8.4828 0 8.1584 0a.5686.5686 0 00-.5678.5677c.0116.3128.2665.5677.5793.5677M4.057 4.1014h1.147s-.1854-.1854-.8922-.9384c-.4055-.4287-.4402-.7647.0695-.7647h.1159l.5793-.869s-.4982-.0115-.7067-.0115c-1.3672 0-1.6105 1.344-.927 1.9927.5215.475.6141.591.6141.591"/><path d="M4.057 4.1014h1.147s-.1854-.1854-.8922-.9384c-.4055-.4287-.4402-.7647.0695-.7647h.1159l.5793-.869s-.4982-.0115-.7067-.0115c-1.3672 0-1.6105 1.344-.927 1.9927.5215.475.6141.591.6141.591m7.9132-1.738c.5098 0 .475.336.0695.7647-.7067.753-.8805.9385-.8805.9385h1.147s.1043-.1043.614-.6025c.6836-.6488.4287-1.9928-.9268-1.9928-.2201 0-.7068.0232-.7068.0232l.5793.869z"/><path d="M11.9701 2.3635c.5098 0 .475.336.0695.7647-.7067.753-.8805.9385-.8805.9385h1.147s.1043-.1043.614-.6025c.6836-.6488.4287-1.9928-.9268-1.9928-.2201 0-.7068.0232-.7068.0232l.5793.869zm-3.3599-.8689h-.8805l.0116 2.1781.4402.3708.4403-.3824z"/><path d="M8.6102 1.4946h-.8805l.0116 2.1781.4402.3708.4403-.3824zm6.4881 11.5511c.2201 1.0428.1506 2.0855-.2085 3.105-.4519 1.2513-1.147 2.0971-2.016 2.4215-.197.0695-.5561.1854-1.008.197-.2896 0-.672-.1043-.9152-.2202-.139-.0579-.4287-.197-.4287-.197-.7763-.4286-1.877-1.2975-1.8654-1.8768 0-.197.4519-.5214.8342-.533.533 0 .9617-.4403.9617-.9732v-.0463l-.197-.8458-.0116-.0232c-.139-.4634-.4982-2.0391.73-2.7458l1.0658-.5098-.3823-.7995-1.089.5214-.0348.0116c-1.2166.6951-1.6452 2.097-1.1586 3.7654l.1622.7183c-.0116.0232-.0348.0464-.0695.0464-.3592 0-.7647.139-1.0891.3707a1.1698 1.1698 0 00-.1854.1507c-.3592-.3245-.8805-.5098-1.286-.4982-.0348 0-.058-.0232-.0695-.0464l.1622-.7183c.475-1.6684.0347-3.0703-1.1934-3.7538l-1.1122-.5214-.3708.7994 1.066.4982c1.228.6952.892 2.2708.753 2.7459l-.197.869v.0463c0 .533.4403.9616.9733.9616.3707 0 .8341.3128.8341.5214.0116.5792-1.0774 1.4482-1.8537 1.8885-.0695.0347-.1506.081-.2201.1158-.255.1506-.6373.3128-1.0891.3128-.1159 0-.533.0116-1.0543-.1853-.869-.336-1.5873-1.1586-2.0391-2.41-.4403-1.1933-.475-2.4098-.1043-3.6263.1043-.3707.3591-.9153.3476-.9269.5677-1.2165 1.5061-2.352 2.711-3.3135.0232-.0116 1.8075-1.402 3.2905-2.3867L5.7253 4.588H4.335c-1.1933.1159-2.236.5677-3.0703 1.3672C.419 6.7314-.0908 8.1797.0135 9.57c.0463.5908.1853 1.1354.417 1.6452.139-.2781.3245-.6373.5678-1.0544-.058-.2317-.0927-.4518-.1043-.6604-.0811-1.1122.3128-2.3055.9616-2.8964.6952-.6604 1.5525-1.0312 2.5373-1.1354l2.491-.0116c-1.425.9732-2.9544 2.1665-2.9776 2.1781C2.91 8.4345 2.0873 9.3267 1.485 10.3c-.3824.6372-.7531 1.4598-.7415 1.4714C.141 13.3471.1178 14.9807.674 16.51c.6951 1.9001 1.7726 2.6416 2.5604 2.9313.3824.139.7995.2085 1.2166.2085.6372 0 1.1933-.2085 1.1817-.2085.1854-.0696.533-.197.7068-.3013.1622-.0927 1.2512-.7183 1.8653-1.5409.614.7994 1.6684 1.4019 1.8653 1.5178 0 0 .475.278.8574.3939.4287.1158.8921.1158 1.0427.1158.4171 0 .8226-.081 1.2165-.2201.7879-.3012 1.8654-1.0543 2.5374-2.9544.4866-1.3556.5097-2.7806.0926-4.1825a5.3688 5.3688 0 01-.7183.7762"/><path d="M15.0983 13.0457c.2201 1.0428.1506 2.0855-.2085 3.105-.4519 1.2513-1.147 2.0971-2.016 2.4215-.197.0695-.5561.1854-1.008.197-.2896 0-.672-.1043-.9152-.2202-.139-.0579-.4287-.197-.4287-.197-.7763-.4286-1.877-1.2975-1.8654-1.8768 0-.197.4519-.5214.8342-.533.533 0 .9617-.4403.9617-.9732v-.0463l-.197-.8458-.0116-.0232c-.139-.4634-.4982-2.0391.73-2.7458l1.0658-.5098-.3823-.7995-1.089.5214-.0348.0116c-1.2166.6951-1.6452 2.097-1.1586 3.7654l.1622.7183c-.0116.0232-.0348.0464-.0695.0464-.3592 0-.7647.139-1.0891.3707a1.1698 1.1698 0 00-.1854.1507c-.3592-.3245-.8805-.5098-1.286-.4982-.0348 0-.058-.0232-.0695-.0464l.1622-.7183c.475-1.6684.0347-3.0703-1.1934-3.7538l-1.1122-.5214-.3708.7994 1.066.4982c1.228.6952.892 2.2708.753 2.7459l-.197.869v.0463c0 .533.4403.9616.9733.9616.3707 0 .8341.3128.8341.5214.0116.5792-1.0774 1.4482-1.8537 1.8885-.0695.0347-.1506.081-.2201.1158-.255.1506-.6373.3128-1.0891.3128-.1159 0-.533.0116-1.0543-.1853-.869-.336-1.5873-1.1586-2.0391-2.41-.4403-1.1933-.475-2.4098-.1043-3.6263.1043-.3707.3591-.9153.3476-.9269.5677-1.2165 1.5061-2.352 2.711-3.3135.0232-.0116 1.8075-1.402 3.2905-2.3867L5.7253 4.588H4.335c-1.1933.1159-2.236.5677-3.0703 1.3672C.419 6.7314-.0908 8.1797.0135 9.57c.0463.5908.1853 1.1354.417 1.6452.139-.2781.3245-.6373.5678-1.0544-.058-.2317-.0927-.4518-.1043-.6604-.0811-1.1122.3128-2.3055.9616-2.8964.6952-.6604 1.5525-1.0312 2.5373-1.1354l2.491-.0116c-1.425.9732-2.9544 2.1665-2.9776 2.1781C2.91 8.4345 2.0873 9.3267 1.485 10.3c-.3824.6372-.7531 1.4598-.7415 1.4714C.141 13.3471.1178 14.9807.674 16.51c.6951 1.9001 1.7726 2.6416 2.5604 2.9313.3824.139.7995.2085 1.2166.2085.6372 0 1.1933-.2085 1.1817-.2085.1854-.0696.533-.197.7068-.3013.1622-.0927 1.2512-.7183 1.8653-1.5409.614.7994 1.6684 1.4019 1.8653 1.5178 0 0 .475.278.8574.3939.4287.1158.8921.1158 1.0427.1158.4171 0 .8226-.081 1.2165-.2201.7879-.3012 1.8654-1.0543 2.5374-2.9544.4866-1.3556.5097-2.7806.0926-4.1825a5.3688 5.3688 0 01-.7183.7762"/><path d="M6.2814 4.3215l2.8154 2.016c.0348.0232.2201.139.2201.139 1.286.8806 2.5374 1.8306 2.549 1.8422 1.0658.8226 1.9116 1.7958 2.5025 2.8385.2433-.3475.3823-.7299.4518-.9732-.614-.9384-1.425-1.8074-2.4098-2.572-.0116-.0116-1.1239-.8574-2.3404-1.7032-.5098-.3128-2.016-1.3324-2.016-1.3324C7.3359 4.113 6.3047 3.163 6.3047 3.163c-.3823-.3708-.4287-.7763.0348-.7763h.9037v-.8805H6.351c-1.4482.0116-1.6683 1.2049-.8805 2.0507.3013.336.811.7646.811.7646"/><path d="M6.2814 4.3215l2.8154 2.016c.0348.0232.2201.139.2201.139 1.286.8806 2.5374 1.8306 2.549 1.8422 1.0658.8226 1.9116 1.7958 2.5025 2.8385.2433-.3475.3823-.7299.4518-.9732-.614-.9384-1.425-1.8074-2.4098-2.572-.0116-.0116-1.1239-.8574-2.3404-1.7032-.5098-.3128-2.016-1.3324-2.016-1.3324C7.3359 4.113 6.3047 3.163 6.3047 3.163c-.3823-.3708-.4287-.7763.0348-.7763h.9037v-.8805H6.351c-1.4482.0116-1.6683 1.2049-.8805 2.0507.3013.336.811.7646.811.7646m4.0087 15.4325c-.533.4402-1.3556.6256-2.074.6372-.7067-.0116-1.506-.1854-2.039-.5909-.2433.0927-.6025.2202-.9617.3013.3244.3939.7763.6951 1.3556.9037.5909.2085 1.1817.2664 1.564.278h.197c.3824-.0116.9733-.081 1.5641-.2896.5793-.2086 1.0312-.5214 1.3556-.9269a6.2555 6.2555 0 01-.9616-.3128"/><path d="M10.2902 19.754c-.533.4402-1.3556.6256-2.074.6372-.7067-.0116-1.506-.1854-2.039-.5909-.2433.0927-.6025.2202-.9617.3013.3244.3939.7763.6951 1.3556.9037.5909.2085 1.1817.2664 1.564.278h.197c.3824-.0116.9733-.081 1.5641-.2896.5793-.2086 1.0312-.5214 1.3556-.9269a6.2555 6.2555 0 01-.9616-.3128m4.7502-13.8568c-.8342-.7646-1.8422-1.2165-3.0008-1.3324l-.1042-.0115h-.1622l-2.0392.0115c.2086-.1622.4171-.3244.6257-.4981 0 0 .0347-.0116.1274-.1043.0927-.0811.255-.278.255-.278.0463-.0464.0926-.1044.1505-.1623.7995-.8458.5677-2.0391-.8805-2.0391H9.12v.8805h.9037c.4866 0 .336.4171 0 .8458-.4519.394-.9385.7647-1.4598 1.1238.614.4403 1.2397.8342 1.6915 1.1123l1.6452-.0116c.9848.0927 1.8422.4634 2.5489 1.1122.6488.591 1.0543 1.7727.9848 2.885-.0232.336-.0927.7414-.2433 1.147-.1622.4286-.4519 1.008-.9616 1.4134l-.0116.0116a3.825 3.825 0 01-.4055.3244c-2.3288 1.6336-2.5026 3.719-2.5953 4.8313-.0116.0927-.0116.1854-.0231.2665 0 .0464-.0116.1043-.0116.1506-.0116.139-.0232.3128-.058.4866.2202.1159.533.2202.869.1854.0347-.2317.058-.4287.0695-.6025 0-.0463.0116-.1042.0116-.139.0116-.0927.0116-.1854.0232-.2896.0926-1.1007.2433-2.7807 2.2013-4.171l.0463-.0463c1.0775-.7763 1.4946-1.7147 1.4946-1.7263.0116-.0232.0232-.0348.0348-.0464.2664-.5445.417-1.147.4634-1.7726.0695-1.344-.4518-2.7922-1.2976-3.5569"/><path d="M15.0404 5.8972c-.8342-.7646-1.8422-1.2165-3.0008-1.3324l-.1042-.0115h-.1622l-2.0392.0115c.2086-.1622.4171-.3244.6257-.4981 0 0 .0347-.0116.1274-.1043.0927-.0811.255-.278.255-.278.0463-.0464.0926-.1044.1505-.1623.7995-.8458.5677-2.0391-.8805-2.0391H9.12v.8805h.9037c.4866 0 .336.4171 0 .8458-.4519.394-.9385.7647-1.4598 1.1238.614.4403 1.2397.8342 1.6915 1.1123l1.6452-.0116c.9848.0927 1.8422.4634 2.5489 1.1122.6488.591 1.0543 1.7727.9848 2.885-.0232.336-.0927.7414-.2433 1.147-.1622.4286-.4519 1.008-.9616 1.4134l-.0116.0116a3.825 3.825 0 01-.4055.3244c-2.3288 1.6336-2.5026 3.719-2.5953 4.8313-.0116.0927-.0116.1854-.0231.2665 0 .0464-.0116.1043-.0116.1506-.0116.139-.0232.3128-.058.4866.2202.1159.533.2202.869.1854.0347-.2317.058-.4287.0695-.6025 0-.0463.0116-.1042.0116-.139.0116-.0927.0116-.1854.0232-.2896.0926-1.1007.2433-2.7807 2.2013-4.171l.0463-.0463c1.0775-.7763 1.4946-1.7147 1.4946-1.7263.0116-.0232.0232-.0348.0348-.0464.2664-.5445.417-1.147.4634-1.7726.0695-1.344-.4518-2.7922-1.2976-3.5569M5.3082 18.1435c-.0347-.1853-.0463-.3707-.0695-.5097 0-.058-.0116-.1043-.0116-.1507-.0116-.081-.0232-.1737-.0232-.2664-.1042-1.1123-.3012-3.1977-2.6415-4.8082-.1622-.1043-.3013-.2201-.4287-.336-.139.3476-.2317.672-.278.9153.0694.0464.1274.1043.1969.1506 2.0043 1.3787 2.155 3.0587 2.2592 4.1594.0116.1042.0232.197.0232.2896 0 .0464.0116.0927.0116.139.0116.1622.0347.3708.081.591.3477.0347.6489-.058.8806-.1739"/><path d="M5.3082 18.1435c-.0347-.1853-.0463-.3707-.0695-.5097 0-.058-.0116-.1043-.0116-.1507-.0116-.081-.0232-.1737-.0232-.2664-.1042-1.1123-.3012-3.1977-2.6415-4.8082-.1622-.1043-.3013-.2201-.4287-.336-.139.3476-.2317.672-.278.9153.0694.0464.1274.1043.1969.1506 2.0043 1.3787 2.155 3.0587 2.2592 4.1594.0116.1042.0232.197.0232.2896 0 .0464.0116.0927.0116.139.0116.1622.0347.3708.081.591.3477.0347.6489-.058.8806-.1739"/></g></svg>